C:\Users\israe\Dropbox\PhDWork\ExperimentalData\subject9\100\P9S100W02_filtered35.mot
nRows=10
nColumns=28

name C:\Users\israe\Dropbox\PhDWork\ExperimentalData\subject9\100\P9S100W02_filtered35.mot
datacolumns 28
datarows 10
range 1.3550000000 1.3640000000
endheader
time	ground_force_1_vx	ground_force_1_vy	ground_force_1_vz	ground_force_1_px	ground_force_1_py	ground_force_1_pz	ground_moment_1_mx	ground_moment_1_my	ground_moment_1_mz	ground_force_2_vx	ground_force_2_vy	ground_force_2_vz	ground_force_2_px	ground_force_2_py	ground_force_2_pz	ground_moment_2_mx	ground_moment_2_my	ground_moment_2_mz	ground_force_3_vx	ground_force_3_vy	ground_force_3_vz	ground_force_3_px	ground_force_3_py	ground_force_3_pz	ground_moment_3_mx	ground_moment_3_my	ground_moment_3_mz
        1.3550000000	        0.0122502541	        0.1229006661	       -0.0007728942	        0.1988394961	        0.0000558755	       -0.3004071324	       -0.0298340251	        0.0031644220	       -0.0147979166	      -40.5608184257	      724.0572192955	     -175.2115585703	        0.2029003516	       -0.0000795827	        0.4543649445	     -127.2748200111	        8.7096443333	       66.3371149480	        0.0000000000	        0.0000000000	        0.0000000000	        0.2076431971	        0.0000770316	        1.3583900146	       -0.0000000000	        0.0000000000	        0.0000000000	
        1.3560000000	        0.0138579756	        0.1333018307	        0.0031024308	        0.1988394961	        0.0000558755	       -0.3004071324	       -0.0323190328	        0.0040707714	       -0.0161074847	      -39.3846768007	      716.8195635501	     -174.4596844557	        0.2029003516	       -0.0000795827	        0.4543649445	     -125.6908487515	        8.9214632671	       65.6218093762	        0.0000000000	        0.0000000000	        0.0000000000	        0.2076431971	        0.0000770316	        1.3583900146	        0.0000000000	        0.0000000000	        0.0000000000	
        1.3570000000	        0.0149470973	        0.1363170622	        0.0085260359	        0.1988394961	        0.0000558755	       -0.3004071324	       -0.0329959190	        0.0050303006	       -0.0165495490	      -38.1832657450	      709.4705179492	     -173.6379271612	        0.2029003516	       -0.0000795827	        0.4543649445	     -124.0891843708	        9.1323876265	       64.8961780962	        0.0000000000	        0.0000000000	        0.0000000000	        0.2076431971	        0.0000770316	        1.3583900146	        0.0000000000	        0.0000000000	        0.0000000000	
        1.3580000000	        0.0151715055	        0.1281710027	        0.0157300917	        0.1988394961	        0.0000558755	       -0.3004071324	       -0.0309461104	        0.0059795752	       -0.0156725616	      -36.9612457318	      702.0142881200	     -172.7417290823	        0.2029003516	       -0.0000795827	        0.4543649445	     -122.4719875952	        9.3409758826	       64.1604865253	        0.0000000000	        0.0000000000	        0.0000000000	        0.2076431971	        0.0000770316	        1.3583900146	        0.0000000000	        0.0000000000	       -0.0000000000	
        1.3590000000	        0.0141010740	        0.1043315785	        0.0248922665	        0.1988394961	        0.0000558755	       -0.3004071324	       -0.0250679414	        0.0068260749	       -0.0129330014	      -35.7225786794	      694.4563910340	     -171.7659612301	        0.2029003516	       -0.0000795827	        0.4543649445	     -120.8413117185	        9.5455055505	       63.4147021559	        0.0000000000	        0.0000000000	        0.0000000000	        0.2076431971	        0.0000770316	        1.3583900146	        0.0000000000	       -0.0000000000	       -0.0000000000	
        1.3600000000	        0.0112216094	        0.0595702667	        0.0360935144	        0.1988394961	        0.0000558755	       -0.3004071324	       -0.0140917064	        0.0074429663	       -0.0077020234	      -34.4700055175	      686.8033819998	     -170.7056664752	        0.2029003516	       -0.0000795827	        0.4543649445	     -119.1987511043	        9.7441694253	       62.6587052422	       -0.0000000000	        0.0000000000	        0.0000000000	        0.2076431971	        0.0000770316	        1.3583900146	        0.0000000000	       -0.0000000000	       -0.0000000000	
        1.3610000000	        0.0059425356	        0.0000000000	        0.0492648093	        0.1988394961	        0.0000558755	       -0.3004071324	        0.0033826419	        0.0076645704	        0.0007168647	      -33.2058043567	      679.0618845558	     -169.5567126694	        0.2029003516	       -0.0000795827	        0.4543649445	     -117.5451851605	        9.9352349431	       61.8925071741	       -0.0000000000	        0.0000000000	        0.0000000000	        0.2076431971	        0.0000770316	        1.3583900146	        0.0000000000	       -0.0000000000	       -0.0000000000	
        1.3620000000	       -0.0023847310	        0.0000000000	        0.0641225108	        0.1988394961	        0.0000558755	       -0.3004071324	        0.0288179089	        0.0072832718	        0.0130555092	      -31.9328803949	      671.2365053146	     -168.3161632191	        0.2029003516	       -0.0000795827	        0.4543649445	     -115.8805615110	       10.1171700039	       61.1164635879	       -0.0000000000	        0.0000000000	        0.0000000000	        0.2076431971	        0.0000770316	        1.3583900146	        0.0000000000	       -0.0000000000	       -0.0000000000	
        1.3630000000	       -0.0144343481	        0.0000000000	        0.0800929483	        0.1988394961	        0.0000558755	       -0.3004071324	        0.0636342819	        0.0060488363	        0.0300302631	      -30.6552103629	      663.3271153804	     -166.9822971966	        0.2029003516	       -0.0000795827	        0.4543649445	     -114.2037621871	       10.2886102079	       60.3313541406	       -0.0000000000	        0.0000000000	        0.0000000000	        0.2076431971	        0.0000770316	        1.3583900146	        0.0000000000	       -0.0000000000	       -0.0000000000	
        1.3640000000	       -0.0308558978	        0.0000000000	        0.0962280833	        0.1988394961	        0.0000558755	       -0.3004071324	        0.1090579977	        0.0036713427	        0.0522684960	      -29.3776272624	      655.3282978870	     -165.5542333657	        0.2029003516	       -0.0000795827	        0.4543649445	     -112.5129529744	       10.4481421572	       59.5381754697	       -0.0000000000	        0.0000000000	        0.0000000000	        0.2076431971	        0.0000770316	        1.3583900146	        0.0000000000	       -0.0000000000	       -0.0000000000	
